<svg xmlns="http://www.w3.org/2000/svg" version="1.1" xmlns:xlink="http://www.w3.org/1999/xlink" xmlns:svgjs="http://svgjs.com/svgjs" width="1920" height="1080" preserveAspectRatio="none" viewBox="0 0 1920 1080"><g mask="url(&quot;#SvgjsMask1027&quot;)" fill="none"><rect width="1920" height="1080" x="0" y="0" fill="#0e2a47"></rect><path d="M8 1080L1088 0L1904 0L824 1080z" fill="url(#SvgjsLinearGradient1028)"></path><path d="M663.6 1080L1743.6 0L2582.1 0L1502.1 1080z" fill="url(#SvgjsLinearGradient1028)"></path><path d="M1800 1080L720 0L40.5 0L1120.5 1080z" fill="url(#SvgjsLinearGradient1029)"></path><path d="M1194.4 1080L114.40000000000009 0L-581.5999999999999 0L498.4000000000001 1080z" fill="url(#SvgjsLinearGradient1029)"></path><path d="M1301.437034517987 1080L1920 461.43703451798706L1920 1080z" fill="url(#SvgjsLinearGradient1028)"></path><path d="M0 1080L618.5629654820129 1080L 0 461.43703451798706z" fill="url(#SvgjsLinearGradient1029)"></path></g><defs><mask id="SvgjsMask1027"><rect width="1920" height="1080" fill="#ffffff"></rect></mask><linearGradient x1="0%" y1="100%" x2="100%" y2="0%" id="SvgjsLinearGradient1028"><stop stop-color="rgba(15, 70, 185, 0.2)" offset="0"></stop><stop stop-opacity="0" stop-color="rgba(15, 70, 185, 0.2)" offset="0.66"></stop></linearGradient><linearGradient x1="100%" y1="100%" x2="0%" y2="0%" id="SvgjsLinearGradient1029"><stop stop-color="rgba(15, 70, 185, 0.2)" offset="0"></stop><stop stop-opacity="0" stop-color="rgba(15, 70, 185, 0.2)" offset="0.66"></stop></linearGradient></defs></svg>